<?xml version="1.0" encoding="utf-8"?>
<svg viewBox="0 0 500 500" xmlns="http://www.w3.org/2000/svg">
  <g transform="matrix(12.715505, 0, 0, 13.337893, 89.624641, 40.622711)" style="">
    <path style="fill:#030104;" d="M25.323,1.948H1.949C0.871,1.948,0,2.816,0,3.894v19.481c0,1.074,0.871,1.946,1.949,1.946h23.374 c1.071,0,1.946-0.872,1.946-1.946V3.894C27.269,2.816,26.395,1.948,25.323,1.948z M9.315,3.411c0.536,0,0.971,0.431,0.971,0.973 c0,0.537-0.435,0.973-0.971,0.973c-0.538,0-0.978-0.436-0.978-0.973C8.337,3.842,8.777,3.411,9.315,3.411z M6.333,3.411 c0.535,0,0.973,0.431,0.973,0.973c0,0.537-0.438,0.973-0.973,0.973c-0.541,0-0.977-0.436-0.977-0.973 C5.356,3.842,5.792,3.411,6.333,3.411z M3.408,3.411c0.539,0,0.974,0.431,0.974,0.973c0,0.537-0.435,0.973-0.974,0.973 c-0.536,0-0.972-0.436-0.972-0.973C2.436,3.842,2.872,3.411,3.408,3.411z M25.323,23.376H1.949V6.839h23.374V23.376z"/>
    <rect x="1.949" y="6.839" style="fill:#030104;" width="23.374" height="16.537"/>
    <rect x="4.185" y="9.496" style="fill:#030104;" width="2.846" height="2.851"/>
    <rect x="8.233" y="9.496" style="fill:#030104;" width="2.847" height="2.851"/>
    <rect x="12.26" y="9.496" style="fill:#030104;" width="2.847" height="2.851"/>
    <rect x="4.185" y="13.212" style="fill:#030104;" width="2.846" height="2.849"/>
    <rect x="8.233" y="13.212" style="fill:#030104;" width="2.847" height="2.849"/>
    <rect x="12.26" y="13.212" style="fill:#030104;" width="2.847" height="2.849"/>
    <rect x="4.195" y="17.06" style="fill:#030104;" width="2.848" height="2.849"/>
    <rect x="8.246" y="17.06" style="fill:#030104;" width="2.845" height="2.849"/>
    <rect x="12.271" y="17.06" style="fill:#030104;" width="2.847" height="2.849"/>
    <rect x="16.206" y="9.496" style="fill:#030104;" width="2.843" height="2.851"/>
    <rect x="20.231" y="9.496" style="fill:#030104;" width="2.846" height="2.851"/>
    <rect x="16.206" y="13.212" style="fill:#030104;" width="2.843" height="2.849"/>
    <rect x="20.231" y="13.212" style="fill:#030104;" width="2.846" height="2.849"/>
    <rect x="16.215" y="17.06" style="fill:#030104;" width="2.846" height="2.849"/>
    <rect x="20.243" y="17.06" style="fill:#030104;" width="2.845" height="2.849"/>
  </g>
  <g transform="matrix(12.715505, 0, 0, 13.337893, 89.624641, 40.622711)" style=""/>
  <g transform="matrix(12.715505, 0, 0, 13.337893, 89.624641, 40.622711)" style=""/>
  <g transform="matrix(12.715505, 0, 0, 13.337893, 89.624641, 40.622711)" style=""/>
  <g transform="matrix(12.715505, 0, 0, 13.337893, 89.624641, 40.622711)" style=""/>
  <g transform="matrix(12.715505, 0, 0, 13.337893, 89.624641, 40.622711)" style=""/>
  <g transform="matrix(12.715505, 0, 0, 13.337893, 89.624641, 40.622711)" style=""/>
  <g transform="matrix(12.715505, 0, 0, 13.337893, 89.624641, 40.622711)" style=""/>
  <g transform="matrix(12.715505, 0, 0, 13.337893, 89.624641, 40.622711)" style=""/>
  <g transform="matrix(12.715505, 0, 0, 13.337893, 89.624641, 40.622711)" style=""/>
  <g transform="matrix(12.715505, 0, 0, 13.337893, 89.624641, 40.622711)" style=""/>
  <g transform="matrix(12.715505, 0, 0, 13.337893, 89.624641, 40.622711)" style=""/>
  <g transform="matrix(12.715505, 0, 0, 13.337893, 89.624641, 40.622711)" style=""/>
  <g transform="matrix(12.715505, 0, 0, 13.337893, 89.624641, 40.622711)" style=""/>
  <g transform="matrix(12.715505, 0, 0, 13.337893, 89.624641, 40.622711)" style=""/>
  <g transform="matrix(12.715505, 0, 0, 13.337893, 89.624641, 40.622711)" style=""/>
  <circle style="fill: rgb(255, 95, 87);" cx="132.67" cy="99.723" r="10.804" transform="matrix(1.176346, 0, 0, 1.204901, -22.962179, -21.130806)"/>
  <circle style="fill: rgb(255, 188, 46);" cx="132.67" cy="99.723" r="10.804" transform="matrix(1.176346, 0, 0, 1.204901, 14.312973, -21.223207)"/>
  <circle style="fill: rgb(39, 200, 64);" cx="132.67" cy="99.723" r="10.804" transform="matrix(1.176346, 0, 0, 1.204901, 52.002888, -21.162582)"/>
</svg>